<svg id="Capa_1" data-name="Capa 1" xmlns="http://www.w3.org/2000/svg" viewBox="0 0 172.21 154.01"><defs><style>.cls-1{fill:#fff;stroke:#fff;stroke-miterlimit:10;stroke-width:5px;}</style></defs><title>logo</title><polygon class="cls-1" points="169.31 43.14 161.37 56.68 153.43 70.23 145.48 83.78 137.54 97.32 137.54 97.33 129.6 110.87 121.65 124.41 121.65 124.42 113.71 137.96 105.77 151.51 105.76 151.51 97.82 137.96 105.77 124.41 113.71 110.87 121.65 97.32 129.59 83.78 137.54 70.23 145.48 56.68 145.49 56.68 153.43 43.14 145.48 29.59 137.54 16.05 42.22 16.05 50.16 2.5 145.48 2.5 153.43 16.05 161.37 29.59 169.31 43.14"/><polygon class="cls-1" points="129.6 29.59 121.66 43.14 42.22 43.14 50.16 56.68 97.82 56.68 89.88 70.23 58.1 70.23 66.05 83.78 81.93 83.78 73.99 97.32 66.05 110.86 58.11 97.32 50.17 83.78 50.16 83.78 50.16 83.77 42.22 70.23 34.27 56.68 26.33 43.14 34.27 29.59 129.6 29.59"/><polygon class="cls-1" points="129.6 56.68 121.65 70.23 113.71 83.77 113.71 83.78 105.77 97.32 105.76 97.32 97.82 110.87 89.88 124.41 81.94 137.96 81.93 137.96 73.99 151.51 58.1 151.51 42.22 124.41 34.27 110.87 26.33 97.32 18.39 83.78 18.38 83.78 10.44 70.23 2.5 56.69 2.5 56.68 10.44 43.14 18.38 56.68 18.39 56.69 26.33 70.23 34.27 83.78 42.21 97.32 42.22 97.32 50.16 110.87 58.1 124.41 66.04 137.96 66.05 137.96 73.99 124.41 74 124.41 81.93 110.87 81.94 110.87 89.88 97.32 97.82 83.78 105.77 70.23 113.71 56.69 113.71 56.68 129.6 56.68"/></svg>